<svg id="Capa_1" enable-background="new 0 0 512 512" height="512" viewBox="0 0 512 512" width="512" xmlns="http://www.w3.org/2000/svg"><path d="m235.761 314.974-189.102 189.016c-10.67 10.67-27.966 10.684-38.636.014-.007-.007-.007-.007-.014-.014-10.677-10.677-10.677-27.987-.007-38.672l189.109-189.024 19.29 19.304z" fill="#fff459"/><path d="m216.401 295.599 19.361 19.375-189.103 189.016c-10.67 10.67-27.966 10.684-38.636.014-.007-.007-.007-.007-.014-.014z" fill="#ffbe00"/><path d="m331.723 344.608c-45.368 0-86.444-18.392-116.171-48.133-29.713-29.727-48.083-70.781-48.09-116.128 0-90.722 73.539-164.261 164.261-164.261 45.347.007 86.402 18.378 116.128 48.09 29.741 29.727 48.133 70.803 48.133 116.171 0 90.722-73.539 164.261-164.261 164.261z" fill="#fff"/><path d="m331.723 344.608c-45.368 0-86.444-18.392-116.171-48.133l232.299-232.298c29.741 29.727 48.133 70.803 48.133 116.171 0 90.721-73.539 164.26-164.261 164.26z" fill="#f4f4fb"/><path d="m512 180.34c0-49.71-20.209-94.795-52.856-127.456-32.64-32.654-77.712-52.877-127.414-52.884-99.405 0-180.284 80.907-180.277 180.348-.007 49.688 20.195 94.752 52.814 127.414 32.64 32.682 77.732 52.927 127.456 52.927 99.405-.001 180.277-80.901 180.277-180.349zm-180.277 150.353c-41.451 0-79.04-16.886-106.257-44.131-27.181-27.224-44.018-64.792-44.018-106.215 0-82.901 67.416-150.345 150.275-150.345 41.436 0 79.005 16.865 106.215 44.088s44.06 64.806 44.06 106.257c-.001 82.902-67.409 150.338-150.275 150.346z" fill="#ff8659"/><path d="m346.724 99.152v25.84c0 8.28-6.72 15-15 15s-15-6.72-15-15v-25.84c0-8.29 6.72-15 15-15s15 6.71 15 15z" fill="#ffbe00"/><path d="m346.774 234.442v25.84c0 8.29-6.72 15-15 15h-.05c-8.27-.03-14.95-6.73-14.95-15v-25.84c0-8.26 6.68-14.97 14.95-15h.05c8.28 0 15 6.72 15 15z" fill="#ff961b"/><path d="m412.036 164.693h-25.761c-8.284 0-15 6.716-15 15s6.716 15 15 15h25.761c8.284 0 15-6.716 15-15s-6.716-15-15-15z" fill="#ff961b"/><g fill="#ffbe00"><path d="m292.172 179.742c0-8.284-6.716-15-15-15h-25.76c-8.284 0-15 6.716-15 15s6.716 15 15 15h25.76c8.284 0 15-6.716 15-15z"/><path d="m381.319 151.922c-2.927 2.942-6.774 4.412-10.621 4.412-3.833 0-7.658-1.449-10.586-4.377l-.007-.007c-5.869-5.841-5.883-15.344-.035-21.206l18.222-18.279c5.848-5.862 15.344-5.883 21.213-.028l.064.064c5.798 5.855 5.798 15.302-.035 21.15z"/><path d="m285.817 247.452c-2.927 2.942-6.774 4.412-10.621 4.412-3.833 0-7.658-1.464-10.592-4.384l-.007-.007c-5.862-5.848-5.876-15.337-.028-21.199l18.222-18.279c5.848-5.862 15.344-5.883 21.213-.028l.049.049c5.812 5.855 5.812 15.316-.021 21.164z"/></g><path d="m380.986 207.767c-5.849-5.867-15.346-5.882-21.213-.034s-5.882 15.346-.034 21.213l18.215 18.273c2.931 2.94 6.776 4.41 10.623 4.41 3.831 0 7.663-1.458 10.59-4.376 5.867-5.849 5.882-15.346.034-21.213z" fill="#ff961b"/><path d="m282.558 151.586c2.931 2.94 6.776 4.41 10.624 4.41 3.831 0 7.663-1.458 10.59-4.376 5.867-5.849 5.882-15.346.034-21.213l-18.216-18.274c-5.849-5.867-15.346-5.882-21.213-.034-5.867 5.849-5.882 15.346-.034 21.213z" fill="#ffbe00"/><path d="m331.723 249.446c-19.057-.007-36.359-7.736-48.939-20.23-12.721-12.65-20.612-30.158-20.612-49.49 0-38.452 31.198-69.735 69.551-69.735 19.346 0 36.876 7.955 49.491 20.796 12.396 12.594 20.061 29.889 20.061 48.939-.001 38.438-31.199 69.72-69.552 69.72z" fill="#fff459"/><path d="m370.699 156.334c-3.833 0-7.658-1.449-10.586-4.377l39.457-39.457c5.798 5.855 5.798 15.302-.035 21.15l-18.215 18.272c-2.928 2.941-6.775 4.412-10.621 4.412z" fill="#ff961b"/><path d="m285.817 247.452c-2.927 2.942-6.774 4.412-10.621 4.412-3.833 0-7.658-1.464-10.592-4.384l-.007-.007 39.457-39.457c5.812 5.855 5.812 15.316-.021 21.164z" fill="#ff961b"/><path d="m331.723 249.446c-19.057-.007-36.359-7.736-48.939-20.23l98.429-98.429c12.396 12.594 20.061 29.889 20.061 48.939 0 38.438-31.198 69.72-69.551 69.72z" fill="#ffd844"/><path d="m331.723 360.688c-49.724 0-94.816-20.244-127.456-52.927l21.199-21.199c27.217 27.245 64.806 44.13 106.257 44.131 82.866-.007 150.275-67.444 150.275-150.345 0-41.451-16.85-79.033-44.06-106.257l21.206-21.206c32.647 32.661 52.856 77.746 52.856 127.455 0 99.448-80.872 180.348-180.277 180.348z" fill="#ff415b"/></svg>